<svg width="1003" height="877"
  xmlns="http://www.w3.org/2000/svg">
  <g>
    <path d="m188.932,375.623l115.731,-58.074l142.089,291.524l58.448,-29.167l-141.423,-291.26l108.451,-54.36l7.985,-0.134l141.667,287.693l58.656,-28.337l-142.002,-292.491l116.361,-54.331l171.225,349.771l-466.761,229.457l-170.427,-350.291z"/>
    <path d="m731.449,0.459c149.601,0.002 271.055,121.458 271.055,271.056l0,334.78c0,149.599 -121.456,271.055 -271.055,271.055l-458.729,0c-149.599,0 -271.055,-121.456 -271.055,-271.055l0,-334.78c0,-149.598 121.454,-271.054 271.055,-271.056l458.729,0zm-2.288,114.388l-452.616,0c-90.293,0.002 -163.596,73.306 -163.596,163.596l0,322.544c0,90.291 73.305,163.596 163.596,163.596l452.616,0c90.291,0 163.596,-73.305 163.596,-163.596l0,-322.544c0,-90.29 -73.303,-163.594 -163.596,-163.596z"/>
  </g>
</svg>